<?xml version="1.0" encoding="UTF-8"?>
<svg id="Layer_2" xmlns="http://www.w3.org/2000/svg" viewBox="0 0 656.59 940.45">
  <defs>
    <style>
      .cls-1 {
        fill: #d1d2d3;
      }

      .cls-2 {
        fill: #c69430;
      }

      .cls-3 {
        fill: #db9914;
      }

      .cls-4 {
        fill: #373737;
      }

      .cls-5 {
        fill: #303233;
      }

      .cls-6 {
        fill: #ddd;
      }

      .cls-7 {
        fill: #4e4e4e;
      }

      .cls-8 {
        fill: #fff;
      }

      .cls-9 {
        fill: #302e29;
      }

      .cls-10 {
        fill: #94989b;
      }
    </style>
  </defs>
  <g id="Layer_1-2" data-name="Layer_1">
    <path class="cls-4" d="M101.75,35.25c-2.98,0-27.81-5.63-27.81-5.63l8.28,31.46s552.64-10.26,553.63-11.59c.99-1.32,16.89-29.8,16.89-29.8l-22.52-4.97L101.75,35.25Z"/>
    <g>
      <path class="cls-10" d="M93.07,938.6c-.55,0-1.08-.25-1.43-.67L2.26,829.16c-.45-.55-.55-1.3-.25-1.94.3-.64.93-1.06,1.64-1.07,0,0,649.24-14.3,649.25-14.3.93,0,1.72.7,1.83,1.62.11.94-.51,1.82-1.43,2.02l-557.99,123.08c-.13.03-.26.04-.4.04h-1.85Z"/>
      <path class="cls-5" d="M652.9,813.68l-557.99,123.08h-1.84L3.69,827.98l649.21-14.3h0ZM652.9,809.99s-.05,0-.08,0L3.61,824.3c-1.41.03-2.68.87-3.27,2.15-.59,1.28-.39,2.79.5,3.88l89.38,108.78c.7.85,1.75,1.35,2.85,1.35h1.84c.27,0,.53-.03.79-.09l557.99-123.08c1.85-.41,3.09-2.16,2.87-4.04-.22-1.86-1.8-3.25-3.66-3.25h0Z"/>
    </g>
    <path class="cls-1" d="M90.65,935.02L3.07,830c.15-269.96.3-539.93.45-809.89,29.03,8.09,58.06,16.17,87.09,24.26l.03,890.65Z"/>
    <polygon class="cls-7" points="512.14 0 139.56 13.71 3.69 18.71 94.92 41.04 465.8 24.95 652.9 16.83 512.14 0"/>
    <polygon class="cls-6" points="467.85 27.21 96.97 43.3 97.05 938.94 654.95 815.94 654.95 19.09 467.85 27.21"/>
    <path class="cls-7" d="M87.13,775.01c187.59-35.39,375.18-70.78,562.76-106.16l1.54,143.75c-186.63,41.53-373.27,83.07-559.9,124.6-1.47-54.06-2.93-108.12-4.4-162.19Z"/>
    <g>
      <path class="cls-6" d="M74.46,829.56c-1.6,23.46-16.23,33.04-31.1,23.42-13.31-8.62-22.88-30.36-22.56-49.98.33-20.37,11.19-33.95,25.66-29.13,16.29,5.42,29.67,31.13,28,55.69Z"/>
      <g id="Layer_20">
        <g>
          <polygon points="37.44 821.19 42.72 824.01 42.65 825.86 37.38 823 37.34 824.49 54.65 833.99 54.73 832.41 48.02 828.77 48.1 826.9 55.6 830.9 55.82 826.48 37.58 817.03 37.44 821.19"/>
          <polygon points="33.73 793.69 60.82 805.37 59.92 822.1 62.47 823.36 63.63 802.8 31.74 789.5 31.48 799.75 33.53 800.69 33.73 793.69"/>
          <path d="M26.11,822.91l10.4,5.91.8-25.33-10.68-4.96-.53,24.38ZM31.45,824.71c-.28-.16-.49-.63-.48-1.06s.25-.66.52-.5.49.63.48,1.06-.25.66-.52.5ZM28.07,801.64l7.57,3.59-.56,18.61-7.43-4.09.42-18.11Z"/>
          <path d="M56.95,821.71l-.96,18.89,9.09,5.19,1.17-19.45-9.3-4.63ZM61.67,824.89c.11.06.2.23.19.38s-.11.24-.22.18-.2-.23-.19-.38.11-.24.22-.18ZM60.41,825.22l2.41,1.22-.02.27-2.41-1.22v-.27ZM60.61,842.4c-.26-.15-.45-.56-.44-.91s.24-.53.51-.38.46.56.44.91-.25.53-.51.38ZM63.91,841.95c-2.17-1.2-5.45-3.02-6.48-3.61l.68-13.05,6.58,3.35-.78,13.3Z"/>
        </g>
      </g>
    </g>
    <g>
      <path class="cls-6" d="M312.96,827.89c0,.24-.06.44-.18.61-.11.17-.25.27-.41.31-.12.03-.21.02-.27-.01-.54-.27-.96-.83-1.27-1.68-.31-.86-.44-2.35-.4-4.48s-.38-3.53-1.25-4.14c-.88-.61-1.91-.78-3.1-.52l-7.27,1.59-.23,11.71c0,.21-.07.41-.2.6-.13.19-.29.31-.48.35s-.34,0-.47-.13c-.12-.13-.18-.3-.18-.52l.51-26.44c0-.21.07-.41.2-.6.13-.19.28-.29.44-.33l8.21-1.63c1.19-.24,2.23-.13,3.14.3.9.44,1.59,1.14,2.08,2.11.48.97.71,2.14.69,3.5-.03,1.76-.42,3.34-1.17,4.75-.74,1.41-1.7,2.47-2.87,3.17.97.18,1.76.79,2.36,1.82.6,1.03.89,2.4.86,4.1s.03,2.96.19,3.62c.16.66.41,1.09.74,1.29.22.13.32.34.32.63ZM306.51,816.31c1.29-.44,2.4-1.33,3.31-2.68.92-1.35,1.39-2.95,1.43-4.82.03-1.63-.39-2.88-1.26-3.75-.87-.87-2.06-1.16-3.55-.86l-7.36,1.48-.24,12.28,7.67-1.66Z"/>
      <path class="cls-6" d="M340.24,821.04c.11.13.16.29.16.49,0,.23-.06.42-.18.59-.12.17-.25.27-.4.3l-10.76,2.52c-.15.04-.29,0-.4-.14-.11-.13-.17-.29-.16-.5l.51-25.4c0-.21.07-.4.18-.57.12-.18.26-.28.41-.31l10.76-2.14c.15-.03.28.02.39.15.11.13.16.29.16.5,0,.23-.06.42-.18.58-.12.16-.25.26-.4.29l-10.12,2.03-.22,10.72,8.86-1.9c.15-.03.28.02.39.14.11.13.16.29.16.49,0,.23-.06.42-.18.59-.12.16-.25.26-.4.29l-8.86,1.92-.23,11.56,10.12-2.35c.15-.03.28.01.39.14Z"/>
      <path class="cls-6" d="M356.07,818.05c-.98-.4-1.94-1.16-2.88-2.27-.11-.12-.16-.3-.15-.52,0-.2.07-.41.2-.62.13-.21.27-.34.41-.37.16-.04.31.04.45.23.68.98,1.49,1.65,2.44,2.02.94.37,1.94.43,2.99.19,1.37-.32,2.5-1.03,3.4-2.14.9-1.11,1.36-2.41,1.39-3.9,0-1.17-.2-2.08-.62-2.74-.42-.66-.95-1.15-1.59-1.46-.64-.31-1.51-.63-2.61-.95-1.22-.37-2.16-.73-2.84-1.08-.68-.35-1.26-.92-1.73-1.74-.48-.81-.7-1.96-.67-3.45.03-1.22.29-2.37.8-3.46.51-1.09,1.22-2.01,2.12-2.76.91-.75,1.95-1.23,3.12-1.47,1.05-.21,2.03-.14,2.95.2.92.34,1.64.93,2.17,1.78.17.31.25.55.25.72,0,.2-.07.39-.21.57-.13.19-.28.29-.44.33-.14.03-.25-.02-.34-.15-.47-.78-1.09-1.35-1.85-1.71-.77-.36-1.62-.45-2.56-.26-1.35.27-2.49.94-3.41,2.01-.93,1.07-1.4,2.38-1.44,3.92-.02,1.07.18,1.92.6,2.57.42.65.96,1.13,1.62,1.45.65.32,1.46.61,2.43.9,1.23.35,2.2.7,2.91,1.06.71.36,1.31.97,1.8,1.83.49.86.71,2.1.68,3.71-.02,1.12-.28,2.23-.78,3.31-.49,1.09-1.19,2.02-2.09,2.8-.9.78-1.93,1.31-3.08,1.58-1.32.31-2.46.27-3.44-.13Z"/>
      <path class="cls-6" d="M389.13,788.08c.82,1.08,1.21,2.62,1.17,4.63-.03,1.32-.25,2.56-.65,3.71-.41,1.16-.97,2.11-1.69,2.87-.72.76-1.54,1.24-2.47,1.44l-5.45,1.19-.23,10.43c0,.19-.06.37-.17.54-.11.17-.24.27-.37.3-.15.04-.28,0-.37-.13-.1-.12-.14-.27-.14-.47l.52-23.71c0-.19.06-.37.16-.53.1-.16.22-.26.36-.29l6-1.19c1.4-.28,2.51.13,3.34,1.21ZM388.2,797.15c.68-1.19,1.04-2.6,1.07-4.23.04-1.63-.26-2.86-.88-3.7-.63-.84-1.5-1.15-2.62-.92l-5.45,1.09-.24,11.09,5.45-1.18c1.11-.24,2-.96,2.68-2.15Z"/>
      <path class="cls-6" d="M415.71,799.14c-.69,2.01-1.62,3.66-2.8,4.97-1.18,1.31-2.52,2.14-4.01,2.49s-2.83.14-3.99-.63c-1.17-.77-2.06-2.03-2.69-3.78-.63-1.75-.91-3.84-.86-6.28s.44-4.67,1.15-6.71c.71-2.04,1.67-3.7,2.89-4.99,1.21-1.28,2.56-2.07,4.06-2.37s2.81-.04,3.94.77c1.13.8,2,2.07,2.6,3.8.6,1.73.87,3.78.82,6.16s-.42,4.57-1.11,6.57ZM415.16,787.26c-.52-1.54-1.28-2.67-2.27-3.38-1-.71-2.15-.93-3.46-.67s-2.5.96-3.55,2.09c-1.06,1.13-1.9,2.6-2.52,4.41-.62,1.81-.95,3.81-1,5.98-.05,2.18.2,4.05.74,5.6.54,1.56,1.32,2.68,2.34,3.36,1.01.68,2.18.87,3.49.56s2.48-1.03,3.52-2.18c1.03-1.14,1.85-2.61,2.45-4.39.6-1.78.92-3.74.97-5.87.05-2.13-.19-3.97-.71-5.51Z"/>
      <path class="cls-6" d="M439.8,776.34c.07.11.1.25.09.42l-.51,21.64c0,.24-.05.43-.14.57-.09.14-.19.23-.32.25-.14.03-.25-.03-.33-.18l-9.18-18.26-.47,20.22c0,.16-.05.3-.13.43-.08.13-.18.21-.3.24-.13.03-.23,0-.3-.1s-.1-.22-.1-.37l.52-22.15c0-.22.05-.4.13-.53.08-.13.17-.2.28-.22.13-.03.24.03.32.17l9.26,18.42.47-19.96c0-.18.05-.33.13-.47.08-.14.18-.22.29-.24.13-.03.22.02.29.12Z"/>
      <path class="cls-6" d="M452.19,795.62c-.73-.37-1.45-1.06-2.15-2.05-.08-.11-.12-.26-.11-.46,0-.17.06-.35.15-.53.1-.18.2-.29.31-.31.12-.03.24.04.34.21.51.87,1.11,1.48,1.82,1.82.71.35,1.46.43,2.25.24,1.03-.24,1.89-.83,2.57-1.77s1.04-2.06,1.07-3.35c.01-1.02-.14-1.82-.46-2.4-.32-.59-.71-1.02-1.19-1.31-.48-.29-1.13-.59-1.96-.89-.91-.36-1.62-.69-2.13-1.01-.51-.32-.94-.83-1.29-1.55-.35-.72-.52-1.72-.48-3.01.03-1.05.23-2.05.62-2.98.39-.93.92-1.71,1.61-2.34s1.47-1.03,2.35-1.2c.79-.16,1.53-.07,2.22.24.69.32,1.23.85,1.62,1.6.12.27.19.48.18.63,0,.17-.06.33-.16.49-.1.16-.21.25-.33.27-.11.02-.19-.02-.25-.14-.35-.69-.82-1.2-1.39-1.53-.58-.33-1.22-.42-1.92-.28-1.02.2-1.88.76-2.58,1.67s-1.07,2.03-1.1,3.37c-.02.92.12,1.67.44,2.25.32.57.72,1.01,1.21,1.3.49.29,1.1.57,1.82.84.92.33,1.65.66,2.18.99.53.33.98.88,1.35,1.64.36.76.53,1.85.49,3.25-.02.98-.22,1.93-.6,2.86-.38.93-.91,1.73-1.59,2.38-.68.66-1.46,1.09-2.33,1.29-.99.23-1.85.16-2.58-.21Z"/>
      <path class="cls-6" d="M470,791.76c-.08.14-.17.23-.27.25-.13.03-.23,0-.29-.12-.07-.11-.1-.26-.09-.44l.51-20.6c0-.19.05-.35.13-.49.08-.14.18-.22.29-.25s.21.02.28.13c.07.11.11.26.1.45l-.51,20.58c-.02.19-.07.36-.15.5Z"/>
      <path class="cls-6" d="M490.8,766.19c.06.09.09.21.09.37,0,.08-.02.18-.04.31l-5.44,21.08c-.08.28-.2.44-.36.48-.07.02-.14,0-.21-.06-.07-.06-.11-.14-.13-.26l-4.49-19.03c-.03-.12-.05-.24-.05-.36,0-.16.04-.31.11-.44s.16-.2.25-.22c.19-.04.32.1.39.41l4.19,17.71,5.07-19.65c.09-.28.21-.43.35-.46.11-.02.19.01.26.1Z"/>
      <path class="cls-6" d="M506.32,782.45c.06.1.1.23.09.39,0,.18-.04.33-.11.45-.07.12-.15.2-.24.22l-6.46,1.51c-.09.02-.17-.02-.24-.12-.07-.1-.1-.23-.09-.39l.5-19.66c0-.16.04-.31.11-.44.07-.13.15-.21.25-.23l6.45-1.28c.09-.02.17.03.23.13.06.1.1.23.09.39,0,.18-.04.33-.11.45s-.15.19-.24.21l-6.07,1.22-.21,8.3,5.31-1.14c.09-.02.17.02.23.13.06.1.1.23.09.39,0,.18-.04.33-.11.45-.07.12-.15.19-.24.21l-5.31,1.15-.23,8.95,6.08-1.41c.09-.02.17.02.23.12Z"/>
    </g>
    <path class="cls-7" d="M654.95,19.09c-.1,33.4-.21,66.81-.31,100.21-185.93,11.49-371.87,22.99-557.8,34.48-.03-36.77-.06-73.54-.1-110.31l558.21-24.39Z"/>
    <path class="cls-7" d="M3.52,20.21c30.28,7.6,60.56,15.21,90.83,22.81-.13,36.84-.25,73.68-.38,110.53-30.3-9.45-60.6-18.91-90.9-28.36.15-34.99.3-69.98.45-104.98Z"/>
    <g>
      <path class="cls-6" d="M96.84,43.48c.07,298.49.14,596.98.21,895.46-.48.11-1.22.23-2.1.14-.8-.08-1.44-.29-1.87-.48.43-298.53.86-597.05,1.28-895.58.83.15,1.66.3,2.48.45Z"/>
      <path class="cls-6" d="M3.69,18.71c-.06.47-.11.93-.17,1.4,12.68,4.21,25.35,8.42,38.03,12.63l49.29,9.61,5.9,1.12v-2.51c-31.02-7.42-62.04-14.83-93.05-22.25Z"/>
    </g>
    <polygon class="cls-6" points="88.9 930.57 94.58 937.26 97.72 936.53 97.72 882.67 92.26 882.34 86.56 875.94 88.9 930.57"/>
    <path class="cls-7" d="M92.69,938.6L2.7,830c0-40.75,0-81.51,0-122.26v-6.78l89.15,74.8.85,162.84Z"/>
    <g>
      <path class="cls-9" d="M191.7,293.32v347.44s366.86-77.37,366.86-77.37l2.4-299.24-369.26,29.18ZM554.42,559.3l-358.21,74.77.03-334.56,360.47-29.38-2.29,289.17Z"/>
      <polygon class="cls-9" points="555.31 272.32 198.09 301.76 198.04 631.31 553.06 557.53 555.31 272.32"/>
      <path class="cls-3" d="M196.2,634.06l358.21-74.77,2.29-289.17-360.47,29.38-.03,334.56ZM198.09,301.76l357.23-29.44-2.25,285.21-355.02,73.78.05-329.55Z"/>
    </g>
    <g>
      <path class="cls-2" d="M439.43,559.22l-105.26,21.5c-6.33,1.29-10.89-4.88-10.1-13.66l.78-8.62c.77-8.47,6.36-15.99,12.41-16.91l101.24-15.34c4.43-.67,8.17,4.34,8.43,11.28l.26,7.04c.26,7.15-3.18,13.77-7.76,14.71Z"/>
      <g>
        <path class="cls-8" d="M344.8,550.15c.87.74,1.5,1.83,1.89,3.28.39,1.45.52,3.13.39,5.03s-.49,3.69-1.1,5.35c-.61,1.66-1.42,3.04-2.44,4.15s-2.21,1.79-3.55,2.05l-5.17.99c-.38.07-.68-.04-.91-.35s-.32-.72-.28-1.25l1.38-17.21c.04-.51.2-.95.48-1.33s.6-.6.97-.66l5.05-.82c1.31-.21,2.4.05,3.28.79ZM343.05,564.08c.73-1.43,1.16-3.14,1.3-5.14s-.06-3.57-.61-4.75c-.54-1.18-1.44-1.66-2.69-1.45l-3.49.59-1.08,13.94,3.55-.66c1.28-.24,2.29-1.08,3.02-2.51Z"/>
        <path class="cls-8" d="M358.68,559.5c-.26.33-.55.53-.88.59l-6.77,1.23c.09,1.12.42,1.95.97,2.5.55.54,1.2.75,1.94.61.56-.11,1.01-.26,1.33-.47s.58-.41.78-.61.33-.34.4-.41c.26-.22.49-.35.71-.39.29-.05.52.05.71.3.19.25.27.57.25.96-.03.52-.25,1.04-.65,1.54-.41.52-.94,1-1.6,1.44-.66.44-1.32.72-1.99.84-1.16.22-2.15.07-2.98-.45-.82-.53-1.43-1.35-1.83-2.47s-.54-2.43-.44-3.94c.11-1.68.46-3.19,1.03-4.53s1.29-2.41,2.14-3.21c.85-.8,1.72-1.27,2.63-1.42s1.71.05,2.46.6c.75.55,1.32,1.36,1.73,2.44.41,1.08.57,2.3.5,3.66-.04.46-.19.86-.45,1.19ZM351.24,558.4l5.37-.96v-.2c0-.8-.23-1.44-.7-1.92-.47-.49-1.02-.67-1.66-.56-1.58.27-2.58,1.49-3.01,3.64Z"/>
        <path class="cls-8" d="M366.56,562.08c.14.23.2.56.18.98-.02.52-.24.99-.65,1.42-.41.43-.86.69-1.36.79-.83.16-1.52.04-2.06-.37-.55-.4-.77-1.44-.69-3.09l.41-7.9-.92.16c-.32.06-.58-.05-.78-.32s-.28-.63-.26-1.08.15-.82.38-1.15.5-.52.82-.57l.92-.16.09-1.8c.03-.49.16-.91.41-1.28.25-.37.54-.58.89-.63s.6.06.8.35c.21.29.3.68.27,1.16l-.09,1.8,1.4-.24c.32-.05.57.05.76.31s.28.62.26,1.07-.14.81-.37,1.14-.49.52-.81.57l-1.4.24-.38,7.73c-.02.4.04.68.18.84.14.16.33.21.59.16.11-.02.25-.09.44-.2.16-.13.32-.2.46-.23.19-.03.35.06.49.29Z"/>
        <path class="cls-8" d="M378.74,547.96c.2.28.3.66.28,1.15l-.41,11.79c-.02.49-.14.92-.37,1.29-.23.37-.51.59-.85.65s-.6-.04-.81-.33c-.2-.28-.3-.67-.29-1.16-.34.61-.8,1.16-1.36,1.65-.57.49-1.16.8-1.77.92-.9.17-1.71,0-2.41-.55-.71-.54-1.25-1.37-1.62-2.49-.37-1.12-.53-2.44-.46-3.95s.34-2.9.81-4.16c.47-1.26,1.08-2.28,1.82-3.06.74-.78,1.55-1.24,2.41-1.39.62-.1,1.18-.04,1.71.19.52.23.96.56,1.31,1v-.03c.02-.48.14-.9.37-1.26.23-.36.51-.56.84-.62s.6.05.8.33ZM375.69,559.03c.56-.99.87-2.16.92-3.5s-.17-2.41-.66-3.21c-.49-.8-1.15-1.12-1.99-.98s-1.52.71-2.09,1.7c-.57.99-.88,2.16-.94,3.52s.16,2.44.65,3.24c.49.8,1.16,1.12,2.01.96s1.55-.73,2.11-1.73Z"/>
        <path class="cls-8" d="M389.47,546.42c.2.28.3.65.29,1.12l-.27,11.64c-.06,2.41-.54,4.26-1.44,5.54s-2.1,2.08-3.58,2.38c-.43.09-.87.12-1.32.11-.45-.01-.81-.08-1.09-.19-.61-.27-.91-.76-.89-1.46,0-.13.03-.29.07-.47.09-.43.23-.77.42-1.02.19-.25.4-.4.61-.44.13-.02.25-.02.36.01.09.04.24.1.46.19.22.09.45.15.69.19.25.04.5.03.77-.02.9-.17,1.56-.59,2-1.24s.67-1.66.71-3.04v-.28c-.68,1.33-1.71,2.13-3.1,2.4-.66.13-1.23,0-1.73-.35-.49-.36-.87-.93-1.12-1.69-.25-.76-.36-1.66-.33-2.71l.26-8.08c.02-.48.13-.89.36-1.25s.5-.56.82-.62.59.06.79.34c.2.28.3.66.28,1.13l-.21,7.05c-.04,1.17.11,1.98.44,2.42.33.45.83.61,1.5.48s1.16-.5,1.54-1.13.57-1.47.6-2.52l.18-7c.01-.47.13-.88.34-1.23.22-.35.49-.55.81-.61s.58.06.78.34Z"/>
        <path class="cls-8" d="M393.96,559.2c-.22.36-.49.57-.81.64s-.56-.05-.77-.34c-.2-.28-.3-.66-.29-1.14l.35-16.75c0-.46.12-.86.34-1.21s.48-.54.8-.59.55.06.75.34c.2.28.29.64.28,1.1l-.31,16.69c0,.48-.12.9-.34,1.26Z"/>
        <path class="cls-8" d="M398.59,558.32c-.21.36-.47.57-.79.63s-.57-.05-.78-.33-.3-.66-.29-1.13l.18-11.18c0-.46.12-.87.32-1.21s.47-.54.78-.6.57.06.76.33c.2.28.29.64.29,1.11l-.15,11.13c0,.47-.12.89-.33,1.25Z"/>
        <path class="cls-8" d="M415.15,547.08c.38.68.58,1.62.58,2.81,0,2.09-.38,3.63-1.16,4.61-.78.98-1.72,1.58-2.81,1.79l-4.38.84c-.31.06-.56-.05-.77-.33s-.31-.65-.3-1.11l.09-15.32c0-.45.11-.85.31-1.18s.46-.53.76-.58l4.34-.71c2.16-.35,3.24.99,3.25,4.05,0,.78-.12,1.49-.36,2.12-.24.64-.59,1.18-1.05,1.6.61.26,1.1.73,1.49,1.41ZM412.5,541.36c-.23-.31-.56-.44-.99-.37l-2.85.48-.02,4.08,2.91-.51c.34-.06.65-.29.91-.68.26-.39.39-.88.39-1.47,0-.71-.12-1.22-.35-1.54ZM413.04,552.31c.31-.5.46-1.17.46-2.01,0-1.04-.18-1.68-.54-1.93-.36-.25-.8-.33-1.31-.24l-3.01.54-.02,5.13,3.15-.59c.54-.1.97-.4,1.28-.9Z"/>
        <path class="cls-8" d="M417.54,539.23c-.16-.16-.24-.48-.24-.96v-.49c0-.48.08-.82.24-1.04.17-.21.44-.35.81-.41.39-.06.67-.01.82.15.16.16.24.48.24.95v.48c0,.49-.07.84-.23,1.05-.16.21-.44.34-.83.41s-.65.02-.81-.15ZM419.2,554.4c-.19.35-.44.55-.73.6s-.54-.05-.74-.32-.3-.64-.3-1.1l-.06-10.79c0-.45.09-.84.28-1.17s.43-.52.72-.57.53.06.73.33c.19.27.29.62.29,1.07l.08,10.75c0,.46-.09.86-.28,1.2Z"/>
        <path class="cls-8" d="M423.48,553.58c-.19.34-.44.54-.73.6s-.52-.05-.71-.32c-.2-.27-.29-.63-.3-1.09l-.16-15.94c0-.44.09-.82.28-1.15s.43-.51.72-.56.51.06.7.33c.19.26.29.61.29,1.05l.19,15.89c0,.45-.09.85-.28,1.19Z"/>
        <path class="cls-8" d="M433.68,538.63c.19.25.29.6.3,1.06l.26,11.3c.05,2.09-.33,3.73-1.13,4.9-.81,1.18-1.85,1.9-3.13,2.15-.33.07-.79.07-1.38.01s-1-.15-1.25-.28c-.55-.26-.83-.72-.84-1.36,0-.12.01-.27.04-.43.06-.4.17-.71.33-.94.16-.23.33-.37.52-.4.11-.02.22-.02.32.02.04,0,.32.12.83.32.51.21.97.27,1.38.19.82-.16,1.42-.53,1.81-1.12.39-.59.57-1.35.55-2.28l-.03-1.24c-.23.58-.58,1.13-1.06,1.65-.48.52-1,.84-1.56.95-.77.15-1.48-.03-2.13-.52-.65-.49-1.16-1.25-1.54-2.28-.38-1.02-.58-2.22-.6-3.6-.02-1.37.14-2.63.49-3.78.34-1.14.82-2.07,1.43-2.77.61-.7,1.29-1.12,2.04-1.25.55-.09,1.07,0,1.55.27s.88.63,1.18,1.09v-.28c-.01-.44.07-.82.25-1.14.18-.32.4-.51.68-.56s.51.06.7.31ZM431.61,548.67c.45-.9.66-1.96.63-3.18s-.28-2.19-.75-2.92c-.48-.73-1.08-1.03-1.81-.91s-1.32.64-1.76,1.53c-.45.9-.66,1.96-.64,3.19s.27,2.22.74,2.95c.48.73,1.08,1.03,1.82.89s1.33-.66,1.77-1.56Z"/>
        <path class="cls-8" d="M436.05,536.15c-.15-.16-.24-.47-.25-.93v-.47c-.02-.46.05-.8.2-1,.15-.21.41-.34.75-.4.37-.06.63-.01.78.14.15.16.23.47.25.93v.47c.03.48-.04.82-.19,1.01-.15.2-.41.33-.78.39s-.62.01-.77-.15ZM437.91,550.83c-.17.33-.4.53-.68.58s-.51-.05-.71-.32-.29-.62-.3-1.06l-.26-10.45c-.01-.43.07-.81.24-1.13s.4-.51.67-.55.51.06.7.32c.19.26.29.61.3,1.04l.28,10.41c.01.44-.07.83-.24,1.16Z"/>
      </g>
    </g>
    <g>
      <path class="cls-6" d="M300.88,474.72c.14.14.21.35.21.64l-.08.49-8.47,32.49c-.05.2-.14.36-.27.49-.13.13-.26.21-.38.22-.39.06-.63-.09-.72-.45l-6.57-21.06-6.84,23.15c-.12.4-.39.63-.78.7-.15.02-.28-.01-.41-.1-.12-.09-.2-.23-.22-.42l-8.57-30.76-.08-.43c0-.29.09-.54.27-.75.18-.2.37-.32.57-.34.15-.02.3.02.44.12.14.1.23.24.28.43l7.91,28.54,6.73-22.83c.12-.43.36-.67.7-.72.15-.02.29.02.42.11.13.09.23.23.27.42l6.49,20.82,7.81-30.21c.12-.43.36-.67.72-.71.22-.03.39.03.54.17Z"/>
      <path class="cls-6" d="M323.2,498.89c.11.15.17.34.16.55s-.05.41-.14.57c-.77,1.47-1.72,2.72-2.86,3.75-1.13,1.04-2.35,1.66-3.63,1.86-1.73.27-3.26.02-4.6-.76-1.34-.78-2.38-2.03-3.12-3.75-.74-1.72-1.1-3.8-1.08-6.24.03-2.5.42-4.75,1.18-6.75.76-2,1.75-3.58,2.98-4.75,1.23-1.17,2.52-1.84,3.9-2.03s2.63.04,3.78.68c1.15.64,2.08,1.69,2.8,3.17.71,1.48,1.07,3.37,1.08,5.68,0,.25-.08.48-.21.7-.14.22-.3.34-.48.37l-13.64,1.98v.61c-.03,1.94.25,3.66.81,5.18.57,1.51,1.41,2.65,2.54,3.4,1.13.75,2.49,1.01,4.08.76,1.11-.17,2.15-.69,3.13-1.57.98-.87,1.76-1.91,2.32-3.1.16-.3.36-.47.59-.5.16-.02.29.04.41.19ZM313.32,484.49c-.91.73-1.71,1.75-2.41,3.05-.7,1.3-1.18,2.83-1.43,4.58l12.79-1.84v-.42c-.09-1.56-.44-2.86-1.06-3.91-.62-1.04-1.39-1.8-2.31-2.26-.93-.46-1.9-.63-2.92-.49-.86.12-1.74.54-2.64,1.27Z"/>
      <path class="cls-6" d="M344.39,479.04c1.15.86,2.03,2.15,2.65,3.86s.91,3.68.86,5.92-.42,4.31-1.12,6.23c-.7,1.92-1.64,3.5-2.82,4.74-1.18,1.24-2.49,1.97-3.92,2.19-1.3.2-2.5-.08-3.6-.86-1.1-.78-2-1.97-2.71-3.56l-.07,4.06c0,.24-.07.47-.19.67-.13.2-.29.32-.49.35-.18.03-.33-.04-.47-.2-.13-.16-.19-.36-.19-.61l.52-32.17c0-.25.07-.47.2-.67.13-.2.29-.31.5-.34s.36.05.49.22c.12.17.18.38.18.63l-.25,15.05c.7-1.9,1.63-3.41,2.77-4.53,1.14-1.12,2.39-1.77,3.75-1.95,1.46-.2,2.77.14,3.92,1ZM343.29,498.39c.98-1.05,1.77-2.4,2.36-4.04.59-1.64.9-3.42.94-5.35s-.21-3.63-.74-5.08c-.53-1.45-1.27-2.55-2.22-3.28-.96-.73-2.04-1.02-3.26-.85s-2.37.76-3.38,1.77c-1.01,1.01-1.8,2.33-2.38,3.95-.58,1.62-.88,3.42-.91,5.37-.03,1.96.22,3.68.75,5.19.53,1.5,1.28,2.62,2.24,3.37.96.74,2.06,1.02,3.3.83s2.31-.81,3.3-1.87Z"/>
      <path class="cls-6" d="M384.3,464.24c.12.15.17.34.17.57,0,.27-.07.48-.19.64-.12.16-.27.25-.45.28l-6.9.89-.78,28.37c0,.23-.07.45-.2.64-.13.2-.28.31-.44.33-.19.03-.33-.04-.44-.19-.11-.16-.16-.35-.15-.59l.77-28.41-7.01.9c-.17.02-.31-.04-.44-.19-.12-.15-.18-.34-.17-.58s.07-.45.21-.63c.13-.18.28-.28.45-.3l15.15-1.92c.16-.02.3.04.42.19Z"/>
      <path class="cls-6" d="M401.44,470.78c.1.16.15.35.14.58l-.66,19.78c0,.23-.07.44-.2.63-.12.19-.26.3-.42.32-.18.03-.32-.04-.42-.19-.1-.15-.15-.35-.14-.58l.13-3.87c-.54,1.54-1.34,2.88-2.4,4.03-1.06,1.15-2.22,1.82-3.47,2.02-1.32.21-2.49-.1-3.52-.93-1.03-.83-1.83-2.08-2.38-3.74-.55-1.66-.8-3.59-.73-5.77s.43-4.14,1.1-5.97c.67-1.82,1.55-3.29,2.65-4.42,1.1-1.12,2.3-1.77,3.6-1.95s2.45.16,3.45,1.01c1,.84,1.7,2.06,2.1,3.64l.13-3.85c0-.23.07-.44.18-.63.11-.19.26-.29.44-.32s.32.04.42.2ZM397.11,490.13c.91-.98,1.63-2.26,2.18-3.82.54-1.57.84-3.27.91-5.11s-.14-3.33-.58-4.73c-.45-1.4-1.1-2.47-1.95-3.2-.86-.73-1.84-1.03-2.94-.88s-2.11.7-3.03,1.65c-.92.95-1.66,2.2-2.21,3.74-.55,1.54-.85,3.25-.91,5.11-.06,1.86.14,3.51.6,4.94.46,1.43,1.11,2.5,1.97,3.22.85.72,1.84.99,2.96.81s2.1-.75,3.01-1.73Z"/>
      <path class="cls-6" d="M408.67,486.59c0-.2.09-.4.25-.59.1-.16.22-.25.36-.27.19-.03.34.06.45.27,1.03,2.18,2.55,3.12,4.55,2.81,1.01-.16,1.91-.67,2.7-1.53.79-.86,1.21-1.93,1.26-3.2s-.25-2.22-.89-2.77c-.64-.55-1.54-.95-2.69-1.21-1.53-.34-2.73-.92-3.6-1.74-.87-.83-1.27-2.11-1.21-3.85s.57-3.14,1.52-4.37c.95-1.22,2.14-1.93,3.56-2.12.79-.11,1.56.02,2.32.37.76.35,1.43.98,2.02,1.89.13.15.19.34.18.57,0,.26-.09.49-.23.71-.16.13-.28.21-.38.22-.13.02-.24-.05-.33-.21-.93-1.48-2.18-2.12-3.76-1.9-1.02.14-1.9.63-2.63,1.47-.73.84-1.12,1.92-1.17,3.23.01,1.22.36,2.11,1.04,2.68.68.57,1.69,1.01,3.04,1.32.96.23,1.75.51,2.38.86.62.34,1.11.88,1.46,1.62.35.73.5,1.73.45,3-.07,1.77-.58,3.24-1.54,4.41-.96,1.17-2.19,1.87-3.68,2.11-2.19.34-3.94-.65-5.26-2.98-.12-.29-.18-.55-.17-.78Z"/>
      <path class="cls-6" d="M439.3,465.64c.09.15.14.34.13.56l-.82,19.07c0,.22-.07.42-.19.6-.12.18-.25.29-.39.31-.16.03-.29-.04-.39-.19-.09-.15-.14-.33-.13-.56l.16-3.73c-.52,1.48-1.27,2.77-2.26,3.87-.99,1.1-2.07,1.75-3.23,1.93-1.22.19-2.3-.11-3.25-.92-.95-.81-1.67-2.01-2.16-3.62-.49-1.61-.7-3.46-.62-5.57.08-2.08.44-3.99,1.08-5.75.64-1.75,1.47-3.17,2.5-4.24,1.03-1.07,2.14-1.69,3.35-1.86s2.26.17,3.18.99c.92.82,1.55,1.99,1.9,3.52l.16-3.72c0-.22.07-.42.18-.61.11-.18.24-.28.41-.3s.29.04.39.2ZM435.09,484.28c.85-.94,1.53-2.17,2.05-3.67.52-1.51.82-3.15.89-4.92s-.09-3.21-.49-4.57c-.4-1.35-.99-2.39-1.77-3.1-.79-.71-1.69-1-2.71-.86s-1.96.67-2.82,1.58c-.86.91-1.56,2.11-2.08,3.6-.52,1.48-.82,3.12-.89,4.92s.1,3.38.5,4.76c.41,1.38,1,2.42,1.79,3.12.78.69,1.69.96,2.73.8s1.95-.71,2.8-1.65Z"/>
      <path class="cls-6" d="M454.79,463.58c-.01.25-.07.46-.16.63-.1.18-.22.27-.36.29-.05,0-.18-.04-.38-.13-.2-.1-.41-.13-.64-.1-.73.1-1.48.65-2.25,1.64-.77.99-1.42,2.21-1.95,3.63-.53,1.43-.82,2.77-.88,4.04l-.46,10.27c0,.22-.07.42-.19.6-.11.18-.24.28-.39.3-.16.03-.29-.04-.38-.19-.09-.15-.13-.33-.12-.55l.85-18.92c0-.22.07-.42.19-.6.12-.18.24-.28.39-.3.16-.02.29.04.38.2.09.15.13.34.12.56l-.2,4.38c.49-1.74,1.19-3.22,2.11-4.44.92-1.22,1.96-1.92,3.14-2.11.82-.11,1.21.15,1.18.78Z"/>
      <path class="cls-6" d="M460.69,482.4c-.11.18-.24.28-.38.3-.16.02-.28-.04-.37-.18-.09-.15-.13-.33-.12-.54l.93-19.32c.01-.22.07-.42.18-.59s.24-.28.38-.3c.16-.02.28.04.37.19s.13.33.12.55l-.94,19.3c-.01.22-.07.41-.18.59Z"/>
      <path class="cls-6" d="M487.08,460.82c.66,1.33.92,3.13.8,5.4l-.63,11.49c-.01.21-.07.4-.17.57-.1.17-.22.27-.37.29s-.26-.04-.35-.18c-.08-.14-.12-.32-.11-.53l.62-11.34c.1-1.88-.1-3.36-.61-4.46-.51-1.1-1.34-1.57-2.51-1.41-.72.1-1.44.49-2.16,1.17-.73.68-1.33,1.54-1.82,2.57-.49,1.04-.76,2.13-.82,3.27l-.6,11.43c-.01.21-.07.4-.17.58-.1.17-.23.27-.38.3s-.27-.04-.35-.18c-.08-.14-.12-.32-.11-.53l.61-11.65c.1-1.84-.1-3.3-.6-4.37-.5-1.07-1.31-1.53-2.45-1.38-.71.1-1.43.48-2.14,1.13-.71.66-1.31,1.5-1.8,2.53-.49,1.03-.76,2.1-.81,3.2l-.6,11.74c-.01.21-.07.41-.18.58s-.23.28-.37.3c-.15.02-.27-.04-.36-.18-.09-.15-.12-.32-.11-.54l.93-18.5c.01-.22.07-.41.18-.59.11-.18.24-.27.37-.29.15-.02.27.04.36.19.09.15.12.33.11.55l-.14,2.83c.55-1.2,1.25-2.22,2.08-3.05s1.68-1.31,2.55-1.43c.93-.13,1.74.14,2.43.79.69.65,1.16,1.67,1.42,3.07.42-1.28,1.14-2.41,2.17-3.4s2-1.54,2.94-1.67c1.43-.19,2.48.38,3.13,1.71Z"/>
    </g>
  </g>
  <g id="Layer_2-2" data-name="Layer_2">
    <g id="Layer_4">
      <g>
        <path class="cls-6" d="M252.27,438.33c-.5.74-1.06,1.16-1.68,1.25-.67.1-1.2-.15-1.6-.77-.4-.61-.57-1.42-.52-2.42l1.71-33.18c.05-.99.31-1.84.79-2.56.47-.72,1.05-1.12,1.74-1.21.61-.08,1.12.19,1.52.79.41.61.58,1.4.53,2.39l-1.67,33.09c-.05,1-.33,1.87-.83,2.62ZM251.1,396.78c-.32-.37-.45-1.09-.4-2.15l.06-1.08c.05-1.06.27-1.82.64-2.28.37-.46.96-.74,1.77-.84.88-.11,1.47.03,1.79.4.32.37.45,1.09.4,2.14l-.05,1.07c-.06,1.1-.28,1.86-.66,2.31-.38.44-1,.72-1.86.83-.8.1-1.37-.03-1.69-.41Z"/>
        <path class="cls-6" d="M272.84,433.3c-1.02,1.66-2.25,2.89-3.7,3.67l-1.87,6.89c-.35,1.27-.87,1.96-1.58,2.07-.46.07-.96-.1-1.49-.51-.54-.41-.78-1-.75-1.77.03-.58.2-1.17.52-1.79l1.96-4.06c-1.37.05-2.64-.25-3.79-.91-1.15-.66-2.08-1.78-2.77-3.35-.2-.43-.28-.98-.24-1.67.05-.99.41-1.88,1.07-2.66.36-.39.72-.62,1.08-.67.51-.07.98.22,1.4.88.67,1.08,1.39,1.84,2.15,2.3.76.46,1.7.6,2.81.44,1.89-.39,2.88-1.65,2.98-3.78.05-1.1-.23-1.89-.84-2.37-.61-.48-1.58-.9-2.9-1.28-1.37-.41-2.49-.85-3.34-1.34-.86-.48-1.57-1.3-2.16-2.44-.58-1.15-.82-2.76-.72-4.85.09-1.82.5-3.45,1.23-4.89.73-1.43,1.65-2.59,2.76-3.47,1.11-.88,2.26-1.4,3.46-1.56s2.43.03,3.62.59,2.09,1.48,2.72,2.77c.28.56.41,1.22.37,1.97-.04.87-.3,1.61-.78,2.24-.35.46-.75.72-1.18.78-.53.07-.95-.13-1.26-.61-.39-.77-.92-1.35-1.58-1.75-.66-.4-1.42-.54-2.29-.42-1.83.25-2.8,1.41-2.9,3.5-.04.83.1,1.48.41,1.95.31.46.72.8,1.23,1.01.5.21,1.22.46,2.14.75,1.27.39,2.33.82,3.16,1.3.83.48,1.52,1.31,2.06,2.47.54,1.16.77,2.76.67,4.81-.1,2.2-.66,4.13-1.68,5.79Z"/>
        <path class="cls-6" d="M283.92,433.6c-.44.72-.97,1.13-1.59,1.22s-1.08-.17-1.45-.77c-.38-.6-.54-1.39-.5-2.38l1.54-34.78c.04-.97.28-1.8.73-2.51.44-.7.97-1.09,1.58-1.17s1.07.19,1.44.79c.37.6.54,1.38.49,2.34l-1.5,34.69c-.04.98-.29,1.83-.73,2.56Z"/>
        <path class="cls-6" d="M307.86,417.64c-.44.61-.93.96-1.48,1.04l-11.49,1.64c.19,2.16.76,3.8,1.71,4.91.95,1.11,2.06,1.57,3.31,1.38.95-.14,1.7-.39,2.25-.75.54-.36.98-.72,1.3-1.08.32-.36.55-.61.67-.74.43-.4.83-.62,1.2-.67.48-.07.89.15,1.21.65.32.51.47,1.13.44,1.88-.04,1-.4,1.96-1.07,2.88-.68.95-1.58,1.81-2.69,2.57-1.11.76-2.23,1.23-3.35,1.39-1.96.29-3.64-.1-5.05-1.2-1.41-1.09-2.47-2.74-3.17-4.93-.7-2.19-.99-4.73-.87-7.61.14-3.21.67-6.09,1.62-8.63.94-2.53,2.13-4.53,3.55-5.99,1.42-1.46,2.91-2.29,4.46-2.5,1.53-.2,2.94.27,4.23,1.42,1.29,1.15,2.3,2.79,3.02,4.93.72,2.14,1.03,4.52.93,7.14-.06.89-.3,1.64-.74,2.26ZM295.15,414.72l9.12-1.27.02-.39c-.03-1.54-.45-2.81-1.26-3.8-.81-.99-1.76-1.42-2.85-1.27-2.69.37-4.37,2.61-5.02,6.73Z"/>
        <path class="cls-6" d="M323.4,423.19c.24.46.35,1.09.32,1.9-.03.99-.4,1.88-1.09,2.66-.69.78-1.46,1.24-2.3,1.36-1.41.21-2.58-.1-3.52-.94-.94-.84-1.34-2.85-1.23-6.02l.55-15.24-1.57.21c-.55.07-.99-.16-1.34-.69-.34-.54-.5-1.25-.47-2.13s.24-1.57.63-2.19c.39-.62.85-.96,1.4-1.03l1.57-.21.13-3.51c.03-.95.26-1.77.68-2.46.42-.69.92-1.07,1.51-1.15s1.03.18,1.39.77c.36.59.52,1.35.49,2.3l-.12,3.5,2.4-.32c.54-.07.98.16,1.32.69.34.54.49,1.24.46,2.11s-.23,1.56-.61,2.18c-.38.62-.84.96-1.38,1.03l-2.41.33-.53,14.92c-.03.77.08,1.32.32,1.63.24.31.57.44,1,.37.18-.03.43-.14.76-.33.28-.22.54-.35.79-.39.32-.05.6.16.84.62Z"/>
        <path class="cls-6" d="M355.27,397.86c.76,2.05,1.1,4.99.99,8.82l-.37,13.81c-.03.94-.23,1.75-.62,2.44-.39.69-.87,1.07-1.43,1.16s-1.03-.16-1.38-.74c-.35-.58-.52-1.34-.49-2.28l.39-13.84c.06-1.98-.14-3.5-.57-4.56-.44-1.07-1.24-1.52-2.42-1.36s-2.2.9-2.93,2.2c-.73,1.3-1.12,2.87-1.17,4.71l-.41,13.91c-.03.95-.24,1.76-.63,2.46-.4.69-.88,1.08-1.46,1.17s-1.04-.16-1.4-.74c-.36-.58-.52-1.35-.49-2.29l.43-13.94c.06-1.99-.13-3.52-.57-4.59-.44-1.07-1.26-1.53-2.45-1.37-1.24.17-2.23.91-2.97,2.22-.74,1.31-1.14,2.89-1.2,4.75l-.45,14c-.03.95-.25,1.78-.65,2.47-.4.7-.89,1.09-1.48,1.18s-1.06-.16-1.42-.75c-.36-.58-.53-1.35-.49-2.31l.75-22.61c.03-.94.25-1.76.65-2.44.4-.68.89-1.07,1.47-1.14s1.05.18,1.4.76c.36.58.52,1.35.49,2.29l-.03.87c.64-1.38,1.44-2.6,2.39-3.64.95-1.04,1.99-1.64,3.11-1.79,2.78-.37,4.49,1.37,5.14,5.23.55-1.58,1.35-3.05,2.41-4.41,1.05-1.35,2.22-2.12,3.51-2.29,2.15-.29,3.61.6,4.38,2.65Z"/>
        <path class="cls-6" d="M377.09,407.79c-.39.59-.84.92-1.35.99l-10.57,1.51c.21,2.07.75,3.64,1.65,4.7.89,1.06,1.92,1.51,3.07,1.34.88-.13,1.56-.36,2.06-.7.5-.34.89-.68,1.19-1.03.29-.34.5-.58.61-.7.39-.38.76-.59,1.1-.64.45-.06.82.15,1.13.63.31.49.45,1.09.44,1.8-.02.96-.34,1.88-.95,2.75-.61.91-1.43,1.72-2.44,2.45-1.02.72-2.04,1.16-3.07,1.32-1.8.27-3.36-.12-4.67-1.17-1.32-1.06-2.31-2.63-2.99-4.73-.68-2.1-.98-4.53-.91-7.28.08-3.08.54-5.82,1.37-8.25.83-2.42,1.9-4.32,3.19-5.72,1.29-1.39,2.65-2.18,4.08-2.37s2.71.27,3.92,1.38c1.21,1.1,2.16,2.68,2.85,4.73.69,2.05,1.01,4.33.95,6.84-.04.85-.26,1.57-.65,2.16ZM365.33,404.93l8.39-1.17v-.37c-.04-1.48-.45-2.69-1.21-3.64-.76-.95-1.64-1.36-2.64-1.23-2.48.34-3.99,2.47-4.54,6.42Z"/>
        <path class="cls-6" d="M386.06,418.33c-.38.68-.84,1.05-1.39,1.14s-.96-.16-1.31-.73c-.35-.57-.51-1.31-.49-2.23l.69-32.62c.02-.91.22-1.69.6-2.35.38-.66.84-1.02,1.38-1.09s.95.18,1.29.75c.34.56.5,1.3.48,2.2l-.66,32.54c-.02.92-.22,1.72-.6,2.39Z"/>
        <path class="cls-6" d="M407.02,403.53c-.38.57-.81.9-1.3.97l-10.18,1.45c.21,2.03.75,3.57,1.62,4.62.87,1.05,1.86,1.48,2.97,1.32.84-.12,1.51-.35,1.98-.68.48-.33.86-.67,1.14-1,.28-.34.47-.57.58-.69.37-.37.72-.58,1.05-.62.43-.06.79.15,1.09.62.3.48.44,1.07.43,1.76-.01.94-.31,1.84-.9,2.69-.59.89-1.37,1.69-2.34,2.39-.98.71-1.96,1.13-2.95,1.28-1.74.26-3.24-.13-4.52-1.16-1.28-1.04-2.25-2.59-2.91-4.65-.67-2.06-.97-4.44-.92-7.15.06-3.02.48-5.71,1.27-8.09.79-2.37,1.8-4.24,3.04-5.6,1.24-1.36,2.54-2.13,3.92-2.31,1.35-.18,2.62.27,3.79,1.36,1.17,1.09,2.1,2.64,2.78,4.65.68,2.02,1,4.25.96,6.72-.03.84-.24,1.54-.61,2.11ZM395.67,400.7l8.09-1.13v-.37c-.05-1.45-.45-2.64-1.19-3.58-.74-.94-1.59-1.34-2.56-1.21-2.39.32-3.83,2.42-4.34,6.28Z"/>
        <path class="cls-6" d="M422.59,386.58c.4.53.6,1.18.59,1.97-.01,1.06-.18,1.88-.51,2.45-.33.58-.71.89-1.15.95-.3.04-.64-.03-1.02-.22-.06-.03-.19-.08-.4-.15s-.43-.1-.67-.06c-.52.07-1.03.41-1.52,1.03-.49.62-.9,1.51-1.22,2.67-.33,1.16-.5,2.52-.52,4.07l-.17,12.3c-.01.9-.19,1.68-.55,2.34-.35.66-.79,1.03-1.32,1.11s-.96-.16-1.3-.72c-.34-.56-.5-1.29-.49-2.19l.31-21.44c.01-.89.2-1.67.55-2.31.35-.65.79-1.01,1.31-1.08s.95.17,1.29.73c.33.56.49,1.28.48,2.17v.67c.47-1.47,1.15-2.63,2.02-3.48.87-.85,1.8-1.34,2.78-1.47.6-.08,1.1.15,1.5.67Z"/>
        <path class="cls-6" d="M440.36,398.79c-.36.56-.77.87-1.24.94l-9.76,1.39c.22,1.99.75,3.5,1.59,4.52.84,1.03,1.8,1.46,2.86,1.3.81-.12,1.44-.34,1.9-.66.46-.32.82-.65,1.09-.98.27-.33.45-.55.55-.67.36-.36.69-.56,1.01-.61.41-.06.76.14,1.05.61.29.47.43,1.04.43,1.73,0,.92-.29,1.8-.84,2.63-.56.87-1.3,1.65-2.23,2.33-.93.69-1.87,1.1-2.82,1.25-1.66.25-3.11-.13-4.34-1.15-1.23-1.02-2.17-2.54-2.83-4.55-.65-2.02-.97-4.35-.94-6.99.03-2.95.42-5.58,1.16-7.91.74-2.32,1.7-4.14,2.88-5.47,1.18-1.33,2.43-2.08,3.74-2.25s2.51.28,3.65,1.34c1.13,1.07,2.03,2.58,2.7,4.56.67,1.97.99,4.16.97,6.57-.03.82-.22,1.51-.57,2.07ZM429.44,395.99l7.75-1.08v-.36c-.06-1.42-.45-2.58-1.17-3.5-.72-.92-1.54-1.32-2.46-1.19-2.29.31-3.66,2.35-4.12,6.13Z"/>
        <path class="cls-6" d="M472.81,397.79c-.83,2.87-1.97,5.22-3.44,7.04-1.47,1.83-3.12,2.88-4.97,3.16s-3.51-.28-4.99-1.68c-1.48-1.4-2.63-3.43-3.45-6.09-.82-2.66-1.23-5.65-1.21-8.98.02-3.32.45-6.42,1.29-9.29.84-2.86,2-5.19,3.49-6.98,1.48-1.78,3.13-2.79,4.96-3.02,1.83-.23,3.47.35,4.92,1.75,1.45,1.4,2.59,3.4,3.41,6.02.82,2.62,1.23,5.56,1.23,8.84,0,3.28-.41,6.36-1.24,9.22ZM469.64,383.13c-.51-1.74-1.21-3.08-2.11-4.02-.9-.94-1.92-1.34-3.05-1.19s-2.18.81-3.09,1.98c-.91,1.17-1.61,2.7-2.13,4.61-.51,1.91-.77,3.98-.78,6.22s.24,4.26.74,6.03c.5,1.77,1.2,3.13,2.1,4.05.9.93,1.93,1.3,3.09,1.13,1.14-.17,2.16-.85,3.08-2.06.91-1.2,1.62-2.75,2.13-4.64.51-1.89.77-3.95.77-6.17s-.25-4.21-.75-5.95ZM460.35,369.43c-.26-.35-.39-.97-.39-1.86v-.89c0-.93.15-1.59.44-1.99.29-.4.72-.63,1.31-.7.62-.08,1.07.06,1.34.4.27.35.41.97.41,1.86v.89c0,.93-.14,1.59-.42,1.98-.28.4-.73.64-1.38.72-.61.08-1.04-.06-1.31-.41ZM465.99,368.72c-.26-.35-.39-.97-.39-1.86v-.89c0-.92.14-1.58.42-1.98.27-.4.7-.63,1.28-.7.64-.08,1.09.05,1.36.38s.41.95.4,1.87v.89c0,.92-.14,1.58-.41,1.98-.27.4-.73.64-1.37.72-.6.08-1.03-.06-1.3-.41Z"/>
        <path class="cls-6" d="M489.26,399.08c.3.47.45,1.1.45,1.89s-.14,1.43-.44,2c-.29.57-.66.89-1.1.96l-8.96,1.35c-.43.06-.79-.16-1.08-.66-.29-.51-.44-1.08-.44-1.71,0-.57.04-1.05.11-1.44.07-.39.21-.85.42-1.38l6.6-16.21-5.39.74c-.45.06-.82-.15-1.12-.64-.3-.49-.45-1.13-.45-1.92s.15-1.41.44-1.96c.3-.55.67-.85,1.11-.91l8.52-1.13c.4-.05.75.15,1.03.62.29.47.43,1.08.43,1.83,0,.49-.02.91-.08,1.26-.05.35-.18.77-.38,1.26l-6.6,16.31,5.8-.85c.44-.06.81.14,1.11.6Z"/>
        <path class="cls-6" d="M505.97,389.46c-.32.53-.7.83-1.13.89l-8.96,1.28c.23,1.9.74,3.34,1.52,4.33.79.98,1.67,1.4,2.65,1.26.74-.11,1.32-.32,1.74-.62.41-.31.74-.62.99-.93.24-.31.41-.53.5-.64.32-.34.63-.53.92-.57.38-.06.7.14.98.59.27.45.41,1,.42,1.65,0,.88-.24,1.72-.74,2.51-.5.83-1.17,1.57-2.02,2.22-.85.65-1.71,1.04-2.58,1.17-1.53.23-2.86-.14-4.01-1.13-1.15-.98-2.04-2.44-2.67-4.37-.63-1.93-.95-4.16-.96-6.69-.01-2.82.31-5.34.95-7.55.65-2.21,1.5-3.95,2.57-5.22,1.06-1.26,2.2-1.98,3.41-2.14,1.19-.16,2.32.28,3.38,1.3s1.91,2.48,2.55,4.37c.64,1.89.97,3.99.99,6.29-.01.78-.18,1.44-.5,1.97ZM495.89,386.72l7.12-.99v-.34c-.08-1.35-.46-2.47-1.13-3.36-.67-.88-1.43-1.27-2.28-1.15-2.1.29-3.33,2.23-3.7,5.84Z"/>
        <path class="cls-6" d="M513.89,399.21c-.31.62-.69.96-1.16,1.03s-.82-.16-1.13-.69c-.31-.52-.47-1.21-.47-2.06l-.25-29.94c0-.83.14-1.55.45-2.15s.69-.93,1.15-.99.82.18,1.12.7c.31.52.46,1.2.47,2.03l.27,29.87c0,.84-.14,1.57-.45,2.19Z"/>
      </g>
      <path class="cls-6" d="M387.54,317.2l.39,7.03c.15,2.22-1.32,4.12-3.38,4.31-1.02.08-2.04-.31-2.82-1.07-.79-.76-1.26-1.82-1.3-2.94.1,2.28-1.56,4.2-3.74,4.27-2.22.07-4.1-1.79-4.19-4.13.08,2.35-1.69,4.32-4,4.39s-4.32-1.83-4.38-4.25h0c.06,2.41-1.85,4.44-4.29,4.52-2.49.08-4.56-1.89-4.59-4.37.04,2.48-1.99,4.57-4.57,4.66-.06,0-.12,0-.18,0-2.63-.06-4.7-2.14-4.67-4.7v-8.09c0-1.27,1.09-2.28,2.42-2.26h0s37.33.61,37.33.61c1.03.02,1.91.92,1.97,2.03ZM384.44,357.94c.97-.13,1.71-1.12,1.65-2.22l-1.25-24.58h-.31c-1.36.07-2.72-.38-3.86-1.26-2.22,2.01-5.51,2.14-7.97.28-2.37,2.06-5.85,2.21-8.44.3-2.54,2.13-6.22,2.28-8.94.32-1.31,1.06-2.94,1.67-4.64,1.74h-.36s.16,27.79.16,27.79c0,1.24,1,2.11,2.21,1.94h0s4.81-.66,4.81-.66l-.23-15.41,10.9-.94.43,14.84,15.84-2.16Z"/>
    </g>
  </g>
</svg>