<?xml version="1.0" encoding="UTF-8"?>
<svg id="Layer_2" xmlns="http://www.w3.org/2000/svg" viewBox="0 0 86.97 86.97">
  <defs>
    <style>
      .cls-1 {
        fill: #4caf50;
      }

      .cls-2 {
        fill: #ff3d00;
      }

      .cls-3 {
        fill: #ffc107;
      }

      .cls-4 {
        fill: #1976d2;
      }
    </style>
  </defs>
  <g id="Layer_1-2" data-name="Layer_1">
    <g>
      <path class="cls-3" d="M63.29,60.41s.05-.06.07-.09c-.02.03-.05.06-.07.09Z"/>
      <path class="cls-3" d="M45.64,69.48c.17-.01.34-.04.51-.06-.17.02-.34.05-.51.06Z"/>
      <path class="cls-3" d="M41.2,69.47c.14.01.27.02.41.03-.14,0-.27-.02-.41-.03Z"/>
      <path class="cls-3" d="M35.64,18.59s-.05.02-.08.03c.03,0,.05-.02.08-.03Z"/>
      <path class="cls-3" d="M33.95,19.2c-.09.04-.18.07-.27.11.09-.04.18-.07.27-.11Z"/>
      <path class="cls-3" d="M30.41,20.91s-.08.04-.11.07c.04-.02.08-.04.11-.07Z"/>
      <path class="cls-3" d="M35.29,68.25c.05.02.11.04.16.05-.05-.02-.11-.04-.16-.05Z"/>
      <path class="cls-3" d="M37.24,68.81c.09.02.17.04.26.06-.09-.02-.17-.04-.26-.06Z"/>
      <path class="cls-3" d="M53.82,67.42s.08-.04.12-.06c-.04.02-.08.04-.12.06Z"/>
      <path class="cls-3" d="M55.7,66.52s.04-.02.05-.03c-.02,0-.04.02-.05.03Z"/>
      <path class="cls-3" d="M57.48,65.47s.02-.01.03-.02c-.01,0-.02.01-.03.02Z"/>
      <path class="cls-3" d="M49.84,68.78c.12-.03.23-.07.35-.1-.12.03-.23.07-.35.1Z"/>
      <path class="cls-3" d="M47.76,69.22c.16-.03.31-.06.46-.09-.16.03-.31.07-.46.09Z"/>
      <path class="cls-3" d="M51.86,68.18c.08-.03.15-.06.23-.08-.08.03-.15.06-.23.08Z"/>
      <path class="cls-3" d="M39.19,69.21c.07.01.13.03.2.04-.07-.01-.13-.02-.2-.04Z"/>
      <path class="cls-3" d="M31.13,85.18c-1.84-.55-3.63-1.21-5.36-1.98,1.73.77,3.52,1.44,5.36,1.98Z"/>
      <path class="cls-3" d="M33.95,85.9c-.79-.18-1.57-.38-2.35-.6.77.22,1.56.42,2.35.6Z"/>
      <path class="cls-3" d="M23.35,4.95c.77-.4,1.55-.78,2.34-1.14-.79.36-1.58.74-2.34,1.14Z"/>
      <path class="cls-3" d="M43.48,86.97c-.95,0-1.88-.04-2.81-.1.93.06,1.87.1,2.81.1Z"/>
      <path class="cls-3" d="M26.03,3.66c1.67-.73,3.39-1.36,5.16-1.88-1.77.52-3.49,1.15-5.16,1.88Z"/>
      <path class="cls-3" d="M37.72,18.04c-.13.03-.25.06-.38.09.12-.03.25-.06.38-.09Z"/>
      <path class="cls-3" d="M37.12,86.5c-.92-.14-1.83-.3-2.73-.49.9.19,1.81.36,2.73.49Z"/>
      <path class="cls-3" d="M39.92,86.81c-.77-.06-1.53-.14-2.28-.25.75.1,1.52.18,2.28.25Z"/>
      <path class="cls-3" d="M41.67,17.46c-.14,0-.29.02-.43.03.14-.01.29-.02.43-.03Z"/>
      <path class="cls-3" d="M40.7.1c.92-.06,1.85-.1,2.78-.1-.93,0-1.86.04-2.78.1Z"/>
      <path class="cls-3" d="M31.78,1.61c.74-.21,1.49-.39,2.24-.56-.76.17-1.5.36-2.24.56Z"/>
      <path class="cls-3" d="M39.47,17.7s-.06.01-.09.02c.03,0,.06-.01.09-.02Z"/>
      <path class="cls-3" d="M34.48.94c.88-.19,1.78-.34,2.68-.48-.9.13-1.8.29-2.68.48Z"/>
      <path class="cls-3" d="M37.76.39c.72-.1,1.45-.17,2.18-.23-.73.06-1.46.14-2.18.23Z"/>
      <path class="cls-3" d="M18.3,8.04c1.56-1.11,3.2-2.12,4.9-3.03-1.71.9-3.34,1.91-4.9,3.03Z"/>
      <path class="cls-3" d="M51.34,86.24c-.51.09-1.02.18-1.54.26.52-.08,1.03-.17,1.54-.26Z"/>
      <path class="cls-3" d="M86.91,45.66c0,.09-.01.18-.02.28,0-.09.01-.18.02-.28Z"/>
      <path class="cls-3" d="M72.63,75.68s0,0,0,0l-13.46-11.39s-.01.01-.02.02c0,0,.02-.01.02-.02l13.46,11.39Z"/>
      <path class="cls-3" d="M67.33,54c.26-.6.51-1.2.72-1.82-.22.62-.46,1.22-.72,1.82Z"/>
      <path class="cls-3" d="M86.74,47.91s0,.03,0,.05c0-.02,0-.03,0-.05Z"/>
      <path class="cls-3" d="M53.57,85.78c-.59.14-1.18.27-1.78.39.6-.12,1.19-.25,1.78-.39Z"/>
      <path class="cls-3" d="M72.62,75.69c-5.29,4.79-11.76,8.32-18.92,10.06,7.29-1.76,13.86-5.35,19.21-10.26-.25.2-.36.27-.29.2Z"/>
      <path class="cls-3" d="M66.49,55.74c.15-.28.28-.58.42-.87-.14.29-.27.58-.42.87Z"/>
      <path class="cls-3" d="M45.64,86.91c.32-.02.64-.05.96-.07-.32.02-.64.05-.96.07Z"/>
      <path class="cls-3" d="M4.77,63.22l14.16-10.91c-.99-2.76-1.54-5.73-1.54-8.83,0-3.46.68-6.75,1.9-9.77l-14.28-10.47c3.18-6.04,7.74-11.24,13.26-15.18C7.22,15.95,0,28.87,0,43.48c0,17.65,10.52,32.83,25.63,39.65-9-4.07-16.37-11.13-20.86-19.91Z"/>
      <path class="cls-3" d="M64.46,58.94c.06-.08.11-.17.17-.25-.06.08-.11.17-.17.25Z"/>
      <path class="cls-3" d="M65.53,57.38c.1-.16.19-.33.29-.49-.1.16-.19.33-.29.49Z"/>
      <path class="cls-3" d="M49.03,86.6c-.43.06-.86.11-1.29.15.43-.04.86-.1,1.29-.15Z"/>
      <path class="cls-2" d="M31.18,1.78c.2-.06.4-.11.6-.17-.2.06-.4.11-.6.17Z"/>
      <path class="cls-2" d="M39.94.16c.26-.02.51-.04.77-.06-.26.02-.51.04-.77.06Z"/>
      <path class="cls-2" d="M34.03,1.04c.15-.03.3-.07.45-.1-.15.03-.3.07-.45.1Z"/>
      <path class="cls-2" d="M35.57,18.62c-.55.17-1.08.37-1.61.58.53-.21,1.07-.4,1.61-.58Z"/>
      <path class="cls-2" d="M37.16.46c.2-.03.4-.05.6-.08-.2.03-.4.05-.6.08Z"/>
      <path class="cls-2" d="M41.24,17.5c-.59.05-1.18.11-1.76.2.58-.09,1.17-.15,1.76-.2Z"/>
      <path class="cls-2" d="M33.69,19.3c-1.13.46-2.22,1-3.27,1.6,1.05-.61,2.14-1.14,3.27-1.6Z"/>
      <path class="cls-2" d="M25.69,3.81c.11-.05.22-.1.33-.15-.11.05-.22.1-.33.15Z"/>
      <path class="cls-2" d="M37.34,18.13c-.57.14-1.14.29-1.7.47.56-.18,1.13-.33,1.7-.47Z"/>
      <path class="cls-2" d="M19.29,33.71h0c2.17-5.36,6.07-9.84,11-12.74-4.94,2.9-8.84,7.38-11.01,12.74Z"/>
      <path class="cls-2" d="M39.39,17.72c-.56.09-1.12.2-1.67.32.55-.12,1.1-.24,1.67-.32Z"/>
      <path class="cls-2" d="M23.21,5.02s.09-.05.14-.07c-.05.02-.09.05-.14.07Z"/>
      <path class="cls-2" d="M18.28,8.06s.02-.01.03-.02c0,0-.02.01-.03.02Z"/>
      <path class="cls-2" d="M43.48,17.39c-.61,0-1.21.03-1.81.07.6-.04,1.2-.07,1.81-.07Z"/>
      <path class="cls-2" d="M5.01,23.24l14.28,10.47c2.17-5.37,6.07-9.84,11.01-12.74.04-.02.08-.04.11-.07,1.05-.61,2.14-1.14,3.27-1.6.09-.04.18-.07.27-.11.53-.21,1.07-.4,1.61-.58.03,0,.05-.02.08-.03.56-.18,1.13-.33,1.7-.47.12-.03.25-.06.38-.09.55-.12,1.1-.24,1.67-.32.03,0,.06-.01.09-.02.58-.09,1.17-.15,1.76-.2.14-.01.29-.02.43-.03.6-.04,1.2-.07,1.81-.07,6.65,0,12.7,2.51,17.31,6.61l12.3-12.3C65.32,4.46,54.94,0,43.48,0c-.93,0-1.86.04-2.78.1-.26.02-.51.04-.77.06-.73.06-1.46.14-2.18.23-.2.03-.4.05-.6.08-.9.13-1.8.29-2.68.48-.15.03-.3.07-.45.1-.76.17-1.5.36-2.24.56-.2.06-.4.11-.6.17-1.77.52-3.49,1.15-5.16,1.88-.11.05-.22.1-.33.15-.79.36-1.58.73-2.34,1.14-.05.02-.09.05-.14.07-1.71.9-3.34,1.91-4.9,3.03,0,0-.02.01-.03.02-5.52,3.94-10.08,9.14-13.26,15.18Z"/>
      <path class="cls-1" d="M45.64,86.91c-.71.03-1.43.05-2.16.05.72,0,1.44-.02,2.16-.05Z"/>
      <path class="cls-1" d="M37.63,86.56c-.17-.02-.34-.04-.51-.06.17.02.34.04.51.06Z"/>
      <path class="cls-1" d="M35.29,68.25c-7.59-2.52-13.63-8.44-16.34-15.95l-.02.02c2.7,7.51,8.76,13.42,16.36,15.94Z"/>
      <path class="cls-1" d="M47.75,86.75c-.38.04-.77.06-1.15.09.38-.03.77-.05,1.15-.09Z"/>
      <path class="cls-1" d="M34.39,86.01c-.15-.03-.3-.07-.45-.1.15.03.3.07.45.1Z"/>
      <path class="cls-1" d="M31.6,85.31c-.15-.04-.31-.09-.46-.13.15.05.31.09.46.13Z"/>
      <path class="cls-1" d="M25.78,83.19s-.1-.04-.15-.07c.05.02.1.04.15.07Z"/>
      <path class="cls-1" d="M40.67,86.87c-.25-.02-.5-.04-.75-.06.25.02.5.04.75.06Z"/>
      <path class="cls-1" d="M49.8,86.5c-.25.04-.51.06-.76.1.25-.03.51-.06.76-.1Z"/>
      <path class="cls-1" d="M43.48,69.57c.73,0,1.45-.03,2.16-.09-.71.06-1.43.09-2.16.09Z"/>
      <path class="cls-1" d="M41.61,69.5c.62.04,1.25.07,1.88.07-.63,0-1.26-.03-1.88-.07Z"/>
      <path class="cls-1" d="M39.39,69.25c.6.09,1.2.16,1.81.22-.61-.05-1.22-.12-1.81-.22Z"/>
      <path class="cls-1" d="M46.15,69.42c.54-.06,1.08-.12,1.61-.2-.53.09-1.07.15-1.61.2Z"/>
      <path class="cls-1" d="M53.94,67.37c.6-.26,1.18-.55,1.76-.85-.57.31-1.16.59-1.76.85Z"/>
      <path class="cls-1" d="M48.22,69.12c.54-.1,1.08-.21,1.61-.34-.53.13-1.07.24-1.61.34Z"/>
      <path class="cls-1" d="M55.75,66.49c.59-.32,1.17-.66,1.73-1.02-.56.36-1.14.7-1.73,1.02Z"/>
      <path class="cls-1" d="M52.09,68.1c.59-.21,1.17-.43,1.73-.67-.57.25-1.15.47-1.73.67Z"/>
      <path class="cls-1" d="M50.19,68.68c.57-.15,1.13-.31,1.68-.5-.55.19-1.11.35-1.68.5Z"/>
      <path class="cls-1" d="M53.7,85.75s-.09.02-.14.03c.05-.01.09-.02.14-.03Z"/>
      <path class="cls-1" d="M51.78,86.16c-.15.03-.3.05-.45.08.15-.03.3-.05.45-.08Z"/>
      <path class="cls-1" d="M35.45,68.31c.59.19,1.18.36,1.79.51-.61-.15-1.2-.32-1.79-.51Z"/>
      <path class="cls-1" d="M57.51,65.45c.56-.36,1.11-.74,1.64-1.15-.53.4-1.08.78-1.64,1.15Z"/>
      <path class="cls-1" d="M37.5,68.87c.56.13,1.12.25,1.69.34-.57-.09-1.13-.21-1.69-.34Z"/>
      <path class="cls-1" d="M47.75,86.75c.43-.04.86-.1,1.29-.15.25-.03.51-.06.76-.1.52-.08,1.03-.17,1.54-.26.15-.03.3-.05.45-.08.6-.12,1.19-.25,1.78-.39.05-.01.09-.02.14-.03,7.16-1.74,13.63-5.27,18.92-10.06,0,0,0,0,0-.01l-13.46-11.39s-.02.01-.02.02c-.53.4-1.08.78-1.64,1.15-.01,0-.02.01-.03.02-.56.36-1.14.7-1.73,1.02-.02,0-.04.02-.05.03-.57.31-1.16.59-1.76.85-.04.02-.08.04-.12.06-.57.25-1.15.47-1.73.67-.08.03-.15.06-.23.08-.55.19-1.11.35-1.68.5-.12.03-.23.07-.35.1-.53.13-1.07.24-1.61.34-.16.03-.31.07-.46.09-.53.09-1.07.15-1.61.2-.17.02-.34.05-.51.06-.71.06-1.43.09-2.16.09-.63,0-1.26-.03-1.88-.07-.14,0-.27-.02-.41-.03-.61-.05-1.22-.12-1.81-.22-.07-.01-.13-.02-.2-.04-.57-.09-1.13-.21-1.69-.34-.09-.02-.17-.04-.26-.06-.61-.15-1.2-.32-1.79-.51-.05-.02-.11-.04-.16-.05-7.6-2.51-13.66-8.42-16.36-15.94l-14.16,10.91c4.48,8.78,11.85,15.83,20.86,19.91.05.02.1.04.15.07,1.73.77,3.52,1.44,5.36,1.98.15.05.31.09.46.13.77.22,1.56.42,2.35.6.15.03.3.07.45.1.9.19,1.81.36,2.73.49.17.02.34.04.51.06.75.1,1.52.18,2.28.25.25.02.5.04.75.06.93.06,1.87.1,2.81.1.72,0,1.44-.02,2.16-.05.32-.02.64-.05.96-.07.38-.03.77-.05,1.15-.09Z"/>
      <path class="cls-4" d="M63.29,60.41c-1.23,1.44-2.61,2.74-4.12,3.88,0,0,0,0,0,0h0c1.51-1.14,2.89-2.44,4.11-3.87Z"/>
      <path class="cls-4" d="M63.36,60.33c.38-.45.75-.91,1.1-1.38-.35.47-.72.94-1.1,1.38Z"/>
      <path class="cls-4" d="M86.89,45.94c-.04.66-.08,1.32-.15,1.97.06-.65.11-1.3.15-1.97Z"/>
      <path class="cls-4" d="M72.91,75.49c1.92-1.56,12.19-11.05,13.83-27.53-1.11,10.86-6.22,20.53-13.83,27.53Z"/>
      <path class="cls-4" d="M65.81,56.89c.23-.38.46-.76.67-1.16-.21.39-.44.78-.67,1.16Z"/>
      <path class="cls-4" d="M64.63,58.7c.31-.43.61-.86.89-1.31-.28.45-.59.88-.89,1.31Z"/>
      <path class="cls-4" d="M66.91,54.87c.14-.29.29-.57.42-.87-.13.3-.28.58-.42.87Z"/>
      <path class="cls-4" d="M86.97,43.48c0,.73-.02,1.46-.06,2.18.03-.72.06-1.44.06-2.18Z"/>
      <path class="cls-4" d="M72.63,75.68h0s0,0-.01.01c-.07.07.03,0,.29-.2,7.61-7,12.72-16.67,13.83-27.53,0-.02,0-.03,0-.05.07-.65.11-1.31.15-1.97,0-.09.01-.18.02-.28.04-.72.06-1.45.06-2.18,0-2.92-.3-5.76-.85-8.52h-3.5v-.18h-39.13v17.39h24.57c-.22.62-.46,1.23-.72,1.82-.13.3-.28.58-.42.87-.14.29-.27.58-.42.87-.21.39-.44.78-.67,1.16-.1.16-.19.33-.29.49-.28.45-.59.88-.89,1.31-.06.08-.11.17-.17.25-.35.48-.72.93-1.1,1.38-.02.03-.05.06-.07.09-1.23,1.44-2.61,2.73-4.11,3.88l13.46,11.39s0,0,0,0Z"/>
      <path class="cls-4" d="M72.63,75.68s0,0,0,.01c0,0,0,0,.01,0h0Z"/>
    </g>
  </g>
</svg>