<?xml version="1.0" encoding="UTF-8"?>
<svg id="Layer_2" data-name="Layer 2" xmlns="http://www.w3.org/2000/svg" xmlns:xlink="http://www.w3.org/1999/xlink" viewBox="0 0 191.52 360.93">
  <defs>
    <style>
      .cls-1 {
        fill: url(#linear-gradient);
      }

      .cls-1, .cls-2, .cls-3, .cls-4, .cls-5, .cls-6, .cls-7, .cls-8 {
        stroke-width: 0px;
      }

      .cls-2 {
        fill: #dd4558;
      }

      .cls-9 {
        stroke: #fff;
      }

      .cls-9, .cls-10 {
        fill: none;
        stroke-miterlimit: 10;
      }

      .cls-3 {
        fill: #151616;
      }

      .cls-10 {
        stroke: #e5e5e6;
      }

      .cls-4 {
        fill: #e5e5e6;
      }

      .cls-5 {
        fill: #babcbe;
      }

      .cls-6 {
        fill: #0c0a0c;
      }

      .cls-7 {
        fill: url(#linear-gradient-2);
      }

      .cls-8, .cls-11 {
        fill: #fff;
      }

      .cls-11 {
        font-family: Poppins-Light, Poppins;
        font-size: 12px;
        font-weight: 300;
      }
    </style>
    <linearGradient id="linear-gradient" x1="-1.48" y1="12.04" x2="193" y2="348.89" gradientUnits="userSpaceOnUse">
      <stop offset="0" stop-color="#414042"/>
      <stop offset="1" stop-color="#0c0a0c"/>
    </linearGradient>
    <linearGradient id="linear-gradient-2" x1=".13" y1="346.09" x2="191.39" y2="14.83" gradientUnits="userSpaceOnUse">
      <stop offset="0" stop-color="#bfc1bf"/>
      <stop offset=".04" stop-color="#bcbebc"/>
      <stop offset=".06" stop-color="#b4b6b4"/>
      <stop offset=".08" stop-color="#a6a8a6"/>
      <stop offset=".1" stop-color="#939493"/>
      <stop offset=".11" stop-color="#797b79"/>
      <stop offset=".12" stop-color="#5a5b5a"/>
      <stop offset=".14" stop-color="#353535"/>
      <stop offset=".15" stop-color="#0b0b0b"/>
      <stop offset=".15" stop-color="#000"/>
      <stop offset=".21" stop-color="#010101"/>
      <stop offset=".23" stop-color="#080808"/>
      <stop offset=".24" stop-color="#141414"/>
      <stop offset=".25" stop-color="#252525"/>
      <stop offset=".26" stop-color="#3a3b3a"/>
      <stop offset=".27" stop-color="#555655"/>
      <stop offset=".28" stop-color="#767776"/>
      <stop offset=".29" stop-color="#9a9b9a"/>
      <stop offset=".29" stop-color="#bfc1bf"/>
      <stop offset=".55" stop-color="#000"/>
      <stop offset=".61" stop-color="#010101"/>
      <stop offset=".63" stop-color="#080808"/>
      <stop offset=".64" stop-color="#141414"/>
      <stop offset=".65" stop-color="#252525"/>
      <stop offset=".67" stop-color="#3a3b3a"/>
      <stop offset=".67" stop-color="#555655"/>
      <stop offset=".68" stop-color="#767776"/>
      <stop offset=".69" stop-color="#9a9b9a"/>
      <stop offset=".7" stop-color="#bfc1bf"/>
      <stop offset=".87" stop-color="#000"/>
      <stop offset=".89" stop-color="#030403"/>
      <stop offset=".91" stop-color="#0f100f"/>
      <stop offset=".93" stop-color="#232423"/>
      <stop offset=".95" stop-color="#3f403f"/>
      <stop offset=".97" stop-color="#646564"/>
      <stop offset=".98" stop-color="#8f918f"/>
      <stop offset="1" stop-color="#bfc1bf"/>
    </linearGradient>
  </defs>
  <g id="OBJECTS">
    <g>
      <g>
        <path class="cls-3" d="M191.52,92.28v22.23c0,.49-.48.9-1.08.9h-.99v-24.02h.99c.6,0,1.08.4,1.08.9Z"/>
        <path class="cls-1" d="M165.79,0H25.73C12.66,0,2.07,10.59,2.07,23.65v313.63c0,13.06,10.59,23.65,23.66,23.65h140.06c13.07,0,23.66-10.59,23.66-23.65V23.65c0-13.06-10.59-23.65-23.66-23.65ZM184.02,335.95c0,10.35-8.38,18.74-18.73,18.74H26.23c-10.34,0-18.74-8.39-18.74-18.74V24.98C7.49,14.63,15.89,6.24,26.23,6.24h21.86v28.11h95.35V6.24h21.86c10.35,0,18.73,8.39,18.73,18.74v310.97Z"/>
        <path class="cls-6" d="M100.91,11.13h-18.19c-.78,0-1.41.63-1.41,1.41s.63,1.41,1.41,1.41h18.19c.78,0,1.41-.63,1.41-1.41s-.63-1.41-1.41-1.41ZM108.61,10.94c-.89,0-1.6.72-1.6,1.6s.71,1.6,1.6,1.6,1.59-.72,1.59-1.6-.71-1.6-1.59-1.6Z"/>
        <path class="cls-8" d="M165.28,6.24h-30.47c-1.28,0-2.31,1.03-2.31,2.31v3.67c0,4.04-3.27,7.31-7.31,7.31h-58.87c-4.04,0-7.31-3.27-7.31-7.31v-3.67c0-1.28-1.03-2.31-2.31-2.31h-30.48C15.88,6.24,7.49,14.63,7.49,24.98v310.97c0,10.35,8.39,18.74,18.74,18.74h139.07c10.34,0,18.73-8.38,18.73-18.73V24.98c0-10.35-8.39-18.74-18.74-18.74Z"/>
        <path class="cls-7" d="M163.82,358.41H27.7c-12.98,0-23.53-10.68-23.53-23.82V26.34C4.16,13.2,14.72,2.52,27.7,2.52h136.13c12.98,0,23.53,10.68,23.53,23.82v308.26c0,13.13-10.56,23.82-23.53,23.82ZM27.7,3.6C15.32,3.6,5.24,13.8,5.24,26.34v308.26c0,12.54,10.07,22.74,22.45,22.74h136.13c12.38,0,22.45-10.2,22.45-22.74V26.34c0-12.54-10.07-22.74-22.45-22.74H27.7Z"/>
        <path class="cls-3" d="M2.07,110.64v29.08h-.99c-.6,0-1.08-.49-1.08-1.08v-26.91c0-.6.49-1.08,1.08-1.08h.99Z"/>
        <path class="cls-3" d="M2.07,74.42v29.08h-.99c-.6,0-1.08-.49-1.08-1.08v-26.91c0-.6.49-1.08,1.08-1.08h.99Z"/>
        <path class="cls-3" d="M2.07,48.47v9.13h-.99c-.6,0-1.08-.49-1.08-1.08v-6.96c0-.6.49-1.08,1.08-1.08h.99Z"/>
        <g>
          <g>
            <rect class="cls-3" x="184.02" y="35.39" width="5.43" height="2.71"/>
            <rect class="cls-3" x="2.07" y="35.39" width="5.43" height="2.71"/>
          </g>
          <g>
            <rect class="cls-3" x="184.02" y="322.83" width="5.43" height="2.71"/>
            <rect class="cls-3" x="2.07" y="322.83" width="5.43" height="2.71"/>
          </g>
        </g>
      </g>
      <g>
        <line class="cls-10" x1="7.5" y1="42.26" x2="184.02" y2="42.26"/>
        <line class="cls-10" x1="7.5" y1="318.67" x2="184.02" y2="318.67"/>
      </g>
      <g>
        <circle class="cls-4" cx="35.55" cy="64.38" r="13.28"/>
        <path class="cls-8" d="M38.35,64.06c-.83.46-1.78.72-2.8.72s-1.97-.26-2.8-.72c-2.85,1.12-4.87,3.89-4.87,7.14v.33c2.05,1.81,4.73,2.9,7.67,2.9s5.62-1.09,7.68-2.9v-.32c0-3.25-2.03-6.02-4.88-7.14ZM35.55,54.33c-2.58,0-4.67,2.09-4.67,4.67s2.09,4.67,4.67,4.67,4.67-2.09,4.67-4.67-2.09-4.67-4.67-4.67Z"/>
      </g>
      <g>
        <rect class="cls-5" x="22.28" y="83.84" width="41.96" height="5.43"/>
        <rect class="cls-5" x="22.28" y="94.08" width="20.98" height="5.43"/>
      </g>
      <g>
        <rect class="cls-5" x="94.73" y="61.41" width="74.51" height="5.43" transform="translate(263.97 128.25) rotate(180)"/>
        <rect class="cls-5" x="94.73" y="51.17" width="20.98" height="5.43" transform="translate(210.44 107.76) rotate(180)"/>
        <rect class="cls-5" x="121.5" y="51.17" width="20.98" height="5.43" transform="translate(263.97 107.76) rotate(180)"/>
        <rect class="cls-5" x="148.26" y="51.17" width="20.98" height="5.43" transform="translate(317.51 107.76) rotate(180)"/>
      </g>
      <path class="cls-5" d="M166.05,333.1c-.54.3-1.16.47-1.83.47s-1.29-.17-1.83-.47c-1.87.73-3.19,2.55-3.19,4.67v.21c1.34,1.18,3.1,1.89,5.02,1.89s3.68-.71,5.02-1.9v-.21c0-2.13-1.32-3.94-3.19-4.67ZM164.22,326.73c-1.69,0-3.06,1.37-3.06,3.06s1.37,3.06,3.06,3.06,3.06-1.37,3.06-3.06-1.37-3.06-3.06-3.06Z"/>
      <path class="cls-5" d="M53.75,328.31c-1.59,1.99-1.57,4.9.05,6.87,1.84,2.24,5,2.6,7.27,1.08l3.5,3.5c.15.15.39.15.53,0l.98-.98c.15-.15.15-.39,0-.53l-3.5-3.5c1.42-2.13,1.19-5.03-.68-6.91-2.28-2.28-6.09-2.12-8.16.47ZM60.39,334.07c-1.3,1.3-3.41,1.3-4.7,0s-1.3-3.41,0-4.7c1.3-1.3,3.41-1.3,4.7,0,1.3,1.3,1.3,3.41,0,4.7Z"/>
      <path class="cls-5" d="M127.61,334.38c-1.39-1.39-1.39-3.65,0-5.05.67-.67,1.57-1.04,2.52-1.04s1.85.37,2.52,1.04l.45.45.45-.45c.67-.67,1.57-1.04,2.52-1.04s1.85.37,2.52,1.04c1.39,1.39,1.39,3.65,0,5.05l-5.5,5.5-5.5-5.5Z"/>
      <polygon class="cls-5" points="33.82 332.55 33.82 339.88 29.84 339.88 29.84 334.81 26.25 334.81 26.25 339.88 22.28 339.88 22.28 332.55 28.05 327.16 33.82 332.55"/>
      <path class="cls-5" d="M169.24,30.8l-4.04-3.04v1.31h-2.18c-2.76,0-5,2.24-5,5v2.69l1.68-2.06c1.11-1.37,2.79-2.17,4.55-2.17h.95v1.32l4.04-3.04Z"/>
      <path class="cls-5" d="M32.48,29.36l-.58-1.55h-6.49l-.58,1.55h-2.56v7.35h12.76v-7.35h-2.56ZM28.66,35.16c-1.18,0-2.13-.95-2.13-2.13s.95-2.13,2.13-2.13,2.13.95,2.13,2.13-.95,2.13-2.13,2.13Z"/>
      <path class="cls-5" d="M100.74,330.31l-.75-2.02h-8.45l-.75,2.02h-3.33v9.57h16.62v-9.57h-3.33ZM95.76,337.87c-1.53,0-2.78-1.24-2.78-2.78s1.24-2.78,2.78-2.78,2.78,1.24,2.78,2.78-1.24,2.78-2.78,2.78Z"/>
      <g>
        <g>
          <g>
            <circle class="cls-4" cx="35.55" cy="120.83" r="13.28"/>
            <path class="cls-9" d="M35.55,132.11c-6.22,0-11.28-5.06-11.28-11.28s5.06-11.28,11.28-11.28,11.28,5.06,11.28,11.28-5.06,11.28-11.28,11.28Z"/>
          </g>
          <rect class="cls-5" x="28.4" y="128.68" width="14.31" height="5.43"/>
        </g>
        <g>
          <g>
            <circle class="cls-4" cx="65.66" cy="120.83" r="13.28" transform="translate(-66.21 81.82) rotate(-45)"/>
            <path class="cls-9" d="M65.66,132.11c-6.22,0-11.28-5.06-11.28-11.28s5.06-11.28,11.28-11.28,11.28,5.06,11.28,11.28-5.06,11.28-11.28,11.28Z"/>
          </g>
          <rect class="cls-5" x="58.5" y="128.68" width="14.31" height="5.43"/>
        </g>
        <g>
          <g>
            <circle class="cls-4" cx="95.76" cy="120.83" r="13.28"/>
            <path class="cls-9" d="M95.76,132.11c-6.22,0-11.28-5.06-11.28-11.28s5.06-11.28,11.28-11.28,11.28,5.06,11.28,11.28-5.06,11.28-11.28,11.28Z"/>
          </g>
          <rect class="cls-5" x="88.61" y="128.68" width="14.31" height="5.43"/>
        </g>
        <g>
          <g>
            <circle class="cls-4" cx="125.86" cy="120.83" r="13.28"/>
            <path class="cls-9" d="M125.86,132.11c-6.22,0-11.28-5.06-11.28-11.28s5.06-11.28,11.28-11.28,11.28,5.06,11.28,11.28-5.06,11.28-11.28,11.28Z"/>
          </g>
          <rect class="cls-5" x="118.71" y="128.68" width="14.31" height="5.43"/>
        </g>
        <g>
          <g>
            <circle class="cls-4" cx="155.96" cy="120.83" r="13.28" transform="translate(-32.91 177.86) rotate(-54.57)"/>
            <path class="cls-9" d="M155.96,132.11c-6.22,0-11.28-5.06-11.28-11.28s5.06-11.28,11.28-11.28,11.28,5.06,11.28,11.28-5.06,11.28-11.28,11.28Z"/>
          </g>
          <rect class="cls-5" x="148.81" y="128.68" width="14.31" height="5.43"/>
        </g>
      </g>
      <g>
        <rect class="cls-5" x="7.5" y="142.15" width="57.51" height="42.63"/>
        <rect class="cls-5" x="67.01" y="142.15" width="57.51" height="42.63"/>
        <rect class="cls-5" x="126.51" y="142.15" width="57.51" height="42.63"/>
        <rect class="cls-5" x="7.5" y="186.78" width="57.51" height="42.63"/>
        <rect class="cls-5" x="67.01" y="186.78" width="57.51" height="42.63"/>
        <rect class="cls-5" x="126.51" y="186.78" width="57.51" height="42.63"/>
        <rect class="cls-5" x="7.5" y="231.41" width="57.51" height="42.63"/>
        <rect class="cls-5" x="67.01" y="231.41" width="57.51" height="42.63"/>
        <rect class="cls-5" x="126.51" y="231.41" width="57.51" height="42.63"/>
        <rect class="cls-5" x="7.5" y="276.04" width="57.51" height="42.63"/>
        <rect class="cls-5" x="67.01" y="276.04" width="57.51" height="42.63"/>
        <rect class="cls-5" x="126.51" y="276.04" width="57.51" height="42.63"/>
      </g>
      <g>
        <path class="cls-2" d="M113.08,299.79c-1.77,0-3.21,1.44-3.21,3.21v12.84c0,1.77,1.44,3.21,3.21,3.21h16.24l5.12,5.14v-5.14h4.32c1.77,0,3.21-1.44,3.21-3.21v-12.84c0-1.77-1.44-3.21-3.21-3.21h-25.68Z"/>
        <g>
          <path class="cls-8" d="M116.9,309.09c-.95-.95-.95-2.5,0-3.45.46-.46,1.07-.71,1.72-.71s1.26.25,1.72.71l.31.31.31-.31c.46-.46,1.07-.71,1.72-.71s1.26.25,1.72.71c.95.95.95,2.5,0,3.45l-3.76,3.76-3.76-3.76Z"/>
          <text class="cls-11" transform="translate(130.74 313.35)"><tspan x="0" y="0">1</tspan></text>
        </g>
      </g>
    </g>
  </g>
</svg>